<svg width="313" height="67" viewBox="0 0 313 67" fill="none" xmlns="http://www.w3.org/2000/svg">
<path d="M1.86699 56.8465C17.5248 39.41 60.3072 9.89619 106.175 31.3328C163.509 58.1286 251.454 61.4768 280.49 32.1787" stroke="#DF1C2D" stroke-width="4" stroke-dasharray="8 8"/>
<path d="M270.699 29.6695L276.775 32.3787C277.284 32.6059 277.539 32.7196 277.696 32.9338C277.853 33.148 277.884 33.4253 277.947 33.9797L278.698 40.5895C278.979 43.0695 279.12 44.3094 279.827 44.4576C280.534 44.6058 281.161 43.5266 282.415 41.3684L292.138 24.6261C293.123 22.9313 293.615 22.084 293.228 21.5564C292.842 21.0288 291.886 21.2424 289.973 21.6697L271.077 25.891C268.642 26.4352 267.424 26.7073 267.352 27.426C267.28 28.1448 268.419 28.6531 270.699 29.6695Z" fill="#DF1C2D"/>
</svg>
